<svg xmlns="http://www.w3.org/2000/svg" viewBox="0 0 1200 700"><rect width="1200" height="700" fill="#efe0c6"/><path fill="#121a28" d="M0 0h430L0 280zM1200 700H770l430-280z"/><circle cx="890" cy="160" r="120" fill="#c96d3d"/><circle cx="890" cy="160" r="72" fill="#df8a5f"/><path fill="#172b28" d="M0 530c150-70 270-55 410-10 130 42 250 52 410-15 145-61 250-55 380-8v203H0z"/><path fill="#d0ad82" d="M0 565c150-60 280-35 420 8 140 44 260 48 400-15 155-69 265-55 380-12v154H0z"/><path fill="#172b28" d="M120 560l90-125 90 125zm70-50 20-105 20 105zm-105 50 25-76 25 76z"/><path fill="#172b28" d="M790 610h280l-18-125h-240z"/><rect x="820" y="520" width="205" height="65" rx="5" fill="#e7d3b5"/><rect x="850" y="535" width="35" height="27" fill="#172b28"/><rect x="900" y="535" width="35" height="27" fill="#172b28"/><rect x="950" y="535" width="35" height="27" fill="#172b28"/><circle cx="845" cy="590" r="17" fill="#121a28"/><circle cx="1010" cy="590" r="17" fill="#121a28"/><path fill="#c96d3d" d="M55 80h240v18H55zM55 112h170v10H55z"/><circle cx="75" cy="55" r="12" fill="#c96d3d"/><text x="60" y="235" fill="#172b28" font-family="Georgia,serif" font-size="72" letter-spacing="3">KERALA</text><text x="64" y="270" fill="#c96d3d" font-family="Arial,sans-serif" font-size="16" letter-spacing="8">JOURNEYS BEYOND SIGHTSEEING</text></svg>